<svg width="14" height="15" viewBox="0 0 14 15" fill="none" xmlns="http://www.w3.org/2000/svg">
<path d="M13.4966 14.2499L13.5 14.2493V9.29819C13.5 6.87607 12.9785 5.01025 10.1469 5.01025C8.78565 5.01025 7.87215 5.75725 7.49921 6.46544H7.45984V5.23638H4.77502V14.2493H7.57065V9.78644C7.57065 8.61138 7.7934 7.47513 9.24859 7.47513C10.6824 7.47513 10.7038 8.81613 10.7038 9.86182V14.2499H13.4966Z" fill="#060F16"/>
<path d="M0.2229 5.2373H3.0219V14.2502H0.2229V5.2373Z" fill="#060F16"/>
<path d="M1.62112 0.75C0.726188 0.75 0 1.47619 0 2.37112C0 3.26606 0.726188 4.00744 1.62112 4.00744C2.51606 4.00744 3.24225 3.26606 3.24225 2.37112C3.24169 1.47619 2.5155 0.75 1.62112 0.75Z" fill="#060F16"/>
</svg>
