<svg width="38" height="38" viewBox="0 0 38 38" fill="none" xmlns="http://www.w3.org/2000/svg">
<g clip-path="url(#clip0_133_1483)">
<g clip-path="url(#clip1_133_1483)">
<g clip-path="url(#clip2_133_1483)">
<path d="M2.20581 18.7502C2.20581 18.1289 2.24006 17.5154 2.30678 16.9119M2.20581 18.7502V24.2649C2.20581 26.2954 3.85182 27.9413 5.88228 27.9413M2.20581 18.7502L2.29772 16.9119H2.30678M2.30678 16.9119C3.2212 8.63997 10.2342 2.20605 18.7499 2.20605C27.2657 2.20605 34.2786 8.63997 35.1931 16.9119M2.30678 16.9119H5.88228C8.92796 16.9119 11.3969 19.3808 11.3969 22.4266C11.3969 25.4724 8.92796 27.9413 5.88228 27.9413M5.88228 27.9413C5.88228 28.7955 5.88228 29.2226 5.95292 29.5777C6.24302 31.0362 7.38309 32.1763 8.84151 32.4663C9.19666 32.5369 9.62372 32.5369 10.4779 32.5369H15.0735M35.1931 16.9119C35.2599 17.5154 35.294 18.1289 35.294 18.7502M35.1931 16.9119H31.6176C28.5718 16.9119 26.1029 19.3808 26.1029 22.4266C26.1029 25.4724 28.5718 27.9413 31.6176 27.9413C33.6481 27.9413 35.294 26.2954 35.294 24.2649V18.7502M35.1931 16.9119H35.2022L35.294 18.7502M15.0735 32.5369C15.0735 34.0598 16.308 35.2943 17.8308 35.2943H20.5882C22.1109 35.2943 23.3456 34.0598 23.3456 32.5369C23.3456 31.0141 22.1109 29.7796 20.5882 29.7796H17.8308C16.308 29.7796 15.0735 31.0141 15.0735 32.5369Z" stroke="#007DFC" stroke-width="2.75735" stroke-linejoin="round"/>
</g>
</g>
</g>
<defs>
<clipPath id="clip0_133_1483">
<rect width="37.5" height="37.5" fill="white"/>
</clipPath>
<clipPath id="clip1_133_1483">
<rect width="37.5" height="37.5" fill="white"/>
</clipPath>
<clipPath id="clip2_133_1483">
<rect width="37.5" height="37.5" fill="white"/>
</clipPath>
</defs>
</svg>
