<svg width="11" height="12" viewBox="0 0 11 12" fill="none" xmlns="http://www.w3.org/2000/svg">
<path d="M5.83025 2.05005C3.57033 0.543259 2.44037 -0.210141 1.51663 0.0509756C1.22697 0.132851 0.9585 0.276526 0.729683 0.472109C-9.93411e-08 1.09583 0 2.45393 0 5.17016V6.82524C0 9.54116 -1.49012e-07 10.8992 0.729625 11.5228C0.958416 11.7184 1.22688 11.8621 1.51652 11.944C2.44018 12.2052 3.57008 11.4519 5.83 9.94549L7.07133 9.11808C8.93733 7.87416 9.87042 7.25224 10.0392 6.40491C10.0927 6.13632 10.0927 5.85974 10.0392 5.59116C9.8705 4.74383 8.9375 4.12178 7.07158 2.87769L5.83025 2.05005Z" fill="white"/>
</svg>
