<svg width="22" height="22" viewBox="0 0 22 22" fill="none" xmlns="http://www.w3.org/2000/svg">
<path d="M6.55556 17.6667V14.3333M11 12.1111V17.6667M15.4444 17.6667V9.88889M4.88889 10.4444L6.51622 8.54589C7.57274 7.31328 9.20411 6.73408 10.8013 7.02449C13.0133 7.42668 15.282 6.71802 16.8718 5.12824L17.1111 4.88889M9 21H13C16.3331 21 17.9997 21 19.1679 20.1512C19.5452 19.877 19.877 19.5452 20.1512 19.1679C21 17.9997 21 16.3331 21 13V9C21 5.6669 21 4.00036 20.1512 2.83207C19.877 2.45476 19.5452 2.12294 19.1679 1.84881C17.9997 1 16.3331 1 13 1H9C5.6669 1 4.00036 1 2.83207 1.84881C2.45476 2.12294 2.12294 2.45476 1.84881 2.83207C1 4.00036 1 5.6669 1 9V13C1 16.3331 1 17.9997 1.84881 19.1679C2.12294 19.5452 2.45476 19.877 2.83207 20.1512C4.00036 21 5.6669 21 9 21Z" stroke="url(#paint0_linear_1835_1215)" stroke-width="2" stroke-linecap="round" stroke-linejoin="round"/>
<defs>
<linearGradient id="paint0_linear_1835_1215" x1="10.911" y1="1" x2="12.6071" y2="20.8704" gradientUnits="userSpaceOnUse">
<stop stop-color="#1C2F41"/>
<stop offset="1" stop-color="#060F16"/>
</linearGradient>
</defs>
</svg>
