<svg width="15" height="15" viewBox="0 0 15 15" fill="none" xmlns="http://www.w3.org/2000/svg">
<path fill-rule="evenodd" clip-rule="evenodd" d="M9.20419 0.773432C8.26953 -0.226561 6.68374 -0.226561 5.74911 0.773432C5.28297 1.27218 4.62401 1.54513 3.94173 1.52207C2.57376 1.47585 1.45241 2.59719 1.49864 3.96516C1.5217 4.64744 1.24875 5.3064 0.749994 5.77255C-0.249998 6.70717 -0.249998 8.29297 0.749994 9.22762C1.24875 9.69372 1.5217 10.3527 1.49864 11.0349C1.45241 12.4029 2.57376 13.5243 3.94173 13.4781C4.62401 13.455 5.28297 13.728 5.74911 14.2267C6.68374 15.2267 8.26953 15.2267 9.20419 14.2267C9.67028 13.728 10.3293 13.455 11.0115 13.4781C12.3795 13.5243 13.5009 12.4029 13.4547 11.0349C13.4316 10.3527 13.7045 9.69372 14.2033 9.22762C15.2033 8.29297 15.2033 6.70717 14.2033 5.77255C13.7045 5.3064 13.4316 4.64744 13.4547 3.96516C13.5009 2.59719 12.3795 1.47585 11.0115 1.52207C10.3293 1.54513 9.67028 1.27218 9.20419 0.773432ZM10.494 6.02336C10.7107 5.80221 10.7071 5.44718 10.4859 5.23042C10.2647 5.01366 9.90975 5.01725 9.69293 5.23843L6.54833 8.44721C6.51559 8.48063 6.48725 8.50949 6.4619 8.53506C6.4385 8.50762 6.41248 8.47667 6.38235 8.44086L5.28918 7.1394C5.08999 6.90224 4.73627 6.87151 4.49915 7.07069C4.26201 7.26987 4.23125 7.62358 4.43044 7.86074L5.52365 9.1622L5.53766 9.17887C5.62367 9.28131 5.7155 9.39069 5.80386 9.47472C5.90429 9.57028 6.05181 9.68489 6.26086 9.72841C6.36284 9.74957 6.46766 9.7536 6.57091 9.7403C6.78273 9.71293 6.93861 9.6099 7.04605 9.52235C7.14056 9.44534 7.24052 9.34329 7.33413 9.24773L7.34938 9.23218L10.494 6.02336Z" fill="#060F16"/>
</svg>
