<svg width="14" height="14" viewBox="0 0 14 14" fill="none" xmlns="http://www.w3.org/2000/svg">
<path d="M11.1315 0.075041C10.922 -0.0288442 10.7151 -0.00584574 10.5752 0.0305702C10.4359 0.0668278 10.3007 0.13231 10.1804 0.199168C9.94514 0.329823 9.64454 0.536398 9.28786 0.781513L1.46254 6.15924C1.23379 6.31638 1.0245 6.4602 0.875399 6.58998C0.739582 6.70825 0.505157 6.93564 0.500096 7.28094C0.497994 7.42469 0.530358 7.56686 0.594487 7.69549C0.748529 8.00458 1.05829 8.10802 1.23191 8.15582C1.42252 8.20829 1.67343 8.24731 1.94766 8.28999L4.53302 8.69223L2.8108 11.7339C2.60588 12.0957 2.43208 12.4026 2.32595 12.6415C2.27148 12.7641 2.21929 12.9021 2.19617 13.0426C2.17275 13.1849 2.17 13.3879 2.28705 13.5835C2.36873 13.72 2.48514 13.8324 2.62441 13.9092C2.82397 14.0194 3.02673 14.0095 3.16819 13.9811C3.30777 13.953 3.44383 13.8961 3.56446 13.8373C3.79946 13.7229 4.10009 13.5384 4.45453 13.3209L12.3706 8.46426C12.5999 8.32361 12.811 8.19411 12.9633 8.07455C13.104 7.96406 13.3431 7.75308 13.3688 7.41476C13.3796 7.27281 13.3566 7.13035 13.3016 6.99906C13.1706 6.68615 12.8771 6.56126 12.7087 6.5008C12.5265 6.43529 12.2853 6.379 12.0234 6.31782L9.23539 5.66616L11.0013 2.30294C11.2025 1.91979 11.3721 1.59688 11.474 1.34783C11.5262 1.22038 11.5752 1.07841 11.5947 0.935844C11.6143 0.792663 11.6127 0.584389 11.4848 0.388719C11.397 0.254558 11.2751 0.146268 11.1315 0.075041Z" fill="#F2C94C"/>
</svg>
