<svg width="20" height="23" viewBox="0 0 20 23" fill="none" xmlns="http://www.w3.org/2000/svg">
<path d="M12.2334 14.1885L16.1195 8.08186C17.6489 5.67839 18.4137 4.47665 18.1243 3.50088C18.0335 3.19452 17.8779 2.91121 17.6683 2.67009C17.0004 1.9021 15.576 1.9021 12.7271 1.9021H7.27201C4.42315 1.9021 2.99873 1.9021 2.33085 2.67009C2.12116 2.91121 1.96565 3.19451 1.8748 3.50088C1.58544 4.47665 2.35018 5.67839 3.87966 8.08187L7.76568 14.1885M12.2334 14.1885H7.76568M12.2334 14.1885V17.7958C12.2334 19.9923 12.2334 21.0905 11.8169 21.5006C11.5041 21.8088 11.0643 21.9518 10.6301 21.8866C10.0519 21.7999 9.40602 20.9117 8.11417 19.1354C7.98069 18.9518 7.9139 18.8601 7.86755 18.759C7.83147 18.6805 7.80466 18.5979 7.78757 18.5133C7.76568 18.4042 7.76568 18.2908 7.76568 18.0638V14.1885" stroke="url(#paint0_linear_1835_1209)" stroke-width="2" stroke-linejoin="round"/>
<defs>
<linearGradient id="paint0_linear_1835_1209" x1="9.92675" y1="1.9021" x2="11.9915" y2="21.702" gradientUnits="userSpaceOnUse">
<stop stop-color="#1C2F41"/>
<stop offset="1" stop-color="#060F16"/>
</linearGradient>
</defs>
</svg>
