<svg width="38" height="38" viewBox="0 0 38 38" fill="none" xmlns="http://www.w3.org/2000/svg">
<g clip-path="url(#clip0_133_1460)">
<g clip-path="url(#clip1_133_1460)">
<g clip-path="url(#clip2_133_1460)">
<path d="M16.388 21.1121C16.3427 21.0682 16.2952 21.0266 16.2459 20.9871C15.8874 20.7017 15.4074 20.5989 14.4474 20.3926C6.75251 18.7394 2.90509 17.9129 2.063 16.2501C1.56224 15.2613 1.50513 14.1063 1.90587 13.073C2.57979 11.3351 6.32691 10.133 13.8212 7.72886L24.2601 4.37997C29.2884 2.76688 31.8026 1.96035 33.3486 2.94435C33.8323 3.25228 34.2424 3.66294 34.5495 4.14716C35.5312 5.69457 34.7206 8.20747 33.0999 13.2333L29.7037 23.7644C27.3301 31.1242 26.1433 34.8041 24.4584 35.4906C23.3814 35.9294 22.165 35.8658 21.1398 35.3168C19.5359 34.4576 18.7403 30.6738 17.1494 23.1064C16.9474 22.1455 16.8465 21.665 16.5626 21.3055C16.5087 21.2371 16.4504 21.1725 16.388 21.1121ZM16.388 21.1121L28.5155 8.98443" stroke="#007DFC" stroke-width="2.92969" stroke-linecap="round" stroke-linejoin="round"/>
</g>
</g>
</g>
<defs>
<clipPath id="clip0_133_1460">
<rect width="37.5" height="37.5" fill="white"/>
</clipPath>
<clipPath id="clip1_133_1460">
<rect width="37.5" height="37.5" fill="white"/>
</clipPath>
<clipPath id="clip2_133_1460">
<rect width="37.5" height="37.5" fill="white"/>
</clipPath>
</defs>
</svg>
