<svg width="22" height="23" viewBox="0 0 22 23" fill="none" xmlns="http://www.w3.org/2000/svg">
<path d="M8.30134 11.7795L9.20167 12.98C9.49505 13.3712 9.64179 13.5668 9.83777 13.6097C9.9005 13.6234 9.96518 13.6258 10.0288 13.6169C10.2275 13.5888 10.3885 13.4048 10.7104 13.0368L13.7003 9.61993M11.0008 21.4976C15.91 21.4976 18.9747 16.0457 20.1946 10.2925C20.4788 8.95264 20.6208 8.28269 20.3838 7.49068C20.3145 7.25889 20.1823 6.95956 20.0578 6.75212C19.6323 6.04332 18.9442 5.63986 17.5683 4.83292L13.9503 2.71134C12.6752 1.96354 12.0376 1.58964 11.3437 1.51577C11.1158 1.49149 10.8858 1.49149 10.6579 1.51577C9.96399 1.58964 9.32638 1.96354 8.05123 2.71134L4.43338 4.83292C3.05735 5.63986 2.36934 6.04332 1.94382 6.75212C1.81928 6.95956 1.68715 7.2589 1.61777 7.49068C1.38075 8.28269 1.52281 8.95264 1.80695 10.2925C3.02695 16.0457 6.09157 21.4976 11.0008 21.4976Z" stroke="url(#paint0_linear_1835_1203)" stroke-width="2" stroke-linecap="round" stroke-linejoin="round"/>
<defs>
<linearGradient id="paint0_linear_1835_1203" x1="10.9163" y1="1.49756" x2="12.6996" y2="21.3526" gradientUnits="userSpaceOnUse">
<stop stop-color="#1C2F41"/>
<stop offset="1" stop-color="#060F16"/>
</linearGradient>
</defs>
</svg>
