<svg width="20" height="22" viewBox="0 0 20 22" fill="none" xmlns="http://www.w3.org/2000/svg">
<path d="M18.8891 8.77778V15C18.8891 17.4998 18.8891 18.7498 18.2525 19.626C18.0469 19.9089 17.798 20.1578 17.5151 20.3634C16.6389 21 15.3889 21 12.8891 21H6.66688M9.55577 17.6667H7.11133C4.61151 17.6667 3.36159 17.6667 2.48537 17.0301C2.20239 16.8244 1.95354 16.5756 1.74794 16.2927C1.11133 15.4164 1.11133 14.1664 1.11133 11.6667V7C1.11133 4.50018 1.11133 3.25027 1.74794 2.37404C1.95354 2.09107 2.20239 1.84221 2.48537 1.63661C3.36159 1 4.61151 1 7.11133 1H9.55577C12.0556 1 13.3055 1 14.1818 1.63661C14.4647 1.84221 14.7135 2.09107 14.9192 2.37404C15.5558 3.25027 15.5558 4.50018 15.5558 7V11.6667C15.5558 14.1664 15.5558 15.4164 14.9192 16.2927C14.7135 16.5756 14.4647 16.8244 14.1818 17.0301C13.3055 17.6667 12.0556 17.6667 9.55577 17.6667Z" stroke="url(#paint0_linear_1835_1197)" stroke-width="1.6" stroke-linecap="round" stroke-linejoin="round"/>
<defs>
<linearGradient id="paint0_linear_1835_1197" x1="9.92114" y1="1" x2="11.8255" y2="20.8323" gradientUnits="userSpaceOnUse">
<stop stop-color="#1C2F41"/>
<stop offset="1" stop-color="#060F16"/>
</linearGradient>
</defs>
</svg>
