<svg width="66" height="66" viewBox="0 0 66 66" fill="none" xmlns="http://www.w3.org/2000/svg">
<rect width="65.0618" height="65.0618" rx="3.66545" fill="white"/>
<rect width="65.0618" height="65.0618" rx="3.66545" fill="#1D406F"/>
<g clip-path="url(#clip0_207_208)">
<path opacity="0.9" d="M32.8103 12.8755L42.4989 18.5271V29.8304L32.8103 35.482L23.1218 29.8304V18.5271L32.8103 12.8755Z" fill="white"/>
<path opacity="0.7" d="M32.8101 19.3325L39.2691 23.0465V30.4743L32.8101 34.1882L26.3511 30.4743V23.0465L32.8101 19.3325Z" fill="white"/>
<path d="M32.8125 24.1787L36.042 26.1164V29.9918L32.8125 32.2525L29.583 30.3148V26.4394L32.8125 24.1787Z" fill="white"/>
<path d="M19.8926 38.7114L24.7368 35.4819L29.5811 38.7114L24.7368 41.9409L19.8926 38.7114Z" fill="white"/>
<path d="M36.0413 38.7114L40.8855 35.4819L45.7298 38.7114L40.8855 41.9409L36.0413 38.7114Z" fill="white"/>
<path d="M16.6641 45.1704H23.1231M42.5001 45.1704H48.9591M16.6641 48.3999H21.5083M44.1149 48.3999H48.9591" stroke="white" stroke-width="2.42213" stroke-linecap="round"/>
<path d="M48.9588 22.5635C50.7424 22.5635 52.1883 21.1176 52.1883 19.334C52.1883 17.5504 50.7424 16.1045 48.9588 16.1045C47.1751 16.1045 45.7292 17.5504 45.7292 19.334C45.7292 21.1176 47.1751 22.5635 48.9588 22.5635Z" fill="white"/>
<path opacity="0.9" d="M48.958 20.9468C49.8498 20.9468 50.5728 20.2238 50.5728 19.332C50.5728 18.4402 49.8498 17.7173 48.958 17.7173C48.0662 17.7173 47.3433 18.4402 47.3433 19.332C47.3433 20.2238 48.0662 20.9468 48.958 20.9468Z" fill="white"/>
</g>
<defs>
<clipPath id="clip0_207_208">
<rect width="51.6721" height="51.6721" fill="white" transform="translate(6.97534 6.41455)"/>
</clipPath>
</defs>
</svg>
