<svg width="38" height="38" viewBox="0 0 38 38" fill="none" xmlns="http://www.w3.org/2000/svg">
<g clip-path="url(#clip0_133_1471)">
<g clip-path="url(#clip1_133_1471)">
<path d="M18.7496 15.9593H21.084C22.8766 15.9593 24.3298 17.4126 24.3298 19.2051V19.2145M18.7496 15.9593H16.4244C14.6266 15.9593 13.1692 17.4167 13.1692 19.2145C13.1692 21.0122 14.6266 22.4697 16.4244 22.4697H18.7496M18.7496 15.9593V14.0991M18.7496 15.9593V22.4697M18.7496 22.4697V28.9802M18.7496 22.4697H21.0747C22.8724 22.4697 24.3298 23.9271 24.3298 25.7249C24.3298 27.5228 22.8724 28.9802 21.0747 28.9802H18.7496M18.7496 28.9802H16.4244C14.6266 28.9802 13.1692 27.5228 13.1692 25.7249M18.7496 28.9802V30.8402" stroke="#007DFC" stroke-width="2.51116" stroke-linecap="round" stroke-linejoin="round"/>
<path d="M18.7495 7.58915C11.0446 7.58915 4.79858 16.9444 4.79858 26.1904C4.79858 31.3268 8.26859 35.4909 12.5491 35.4909H24.9499C29.2304 35.4909 32.7003 31.3268 32.7003 26.1904C32.7003 16.9444 26.4543 7.58915 18.7495 7.58915ZM18.7495 7.58915C21.8654 7.58915 23.6763 6.28431 24.1825 3.67462C24.2982 3.07826 24.356 2.78008 24.1881 2.48208C24.1401 2.39707 24.055 2.29372 23.9805 2.23048C23.7199 2.00879 23.3652 2.00879 22.6557 2.00879H14.8432C14.1337 2.00879 13.7789 2.00879 13.5184 2.23048C13.4441 2.29372 13.3588 2.39707 13.3109 2.48208C13.1429 2.78008 13.2007 3.07826 13.3164 3.67462C13.8226 6.28431 15.6336 7.58915 18.7495 7.58915Z" stroke="#007DFC" stroke-width="2.51116" stroke-linecap="round" stroke-linejoin="round"/>
</g>
</g>
<defs>
<clipPath id="clip0_133_1471">
<rect width="37.5" height="37.5" fill="white"/>
</clipPath>
<clipPath id="clip1_133_1471">
<rect width="37.5" height="37.5" fill="white"/>
</clipPath>
</defs>
</svg>
