<svg width="30" height="30" viewBox="0 0 30 30" fill="none" xmlns="http://www.w3.org/2000/svg">
<g clip-path="url(#clip0_134_34)">
<g clip-path="url(#clip1_134_34)">
<path d="M14.9997 12.7674H16.8672C18.3013 12.7674 19.4639 13.9301 19.4639 15.3641V15.3716M14.9997 12.7674H13.1396C11.7013 12.7674 10.5354 13.9333 10.5354 15.3716C10.5354 16.8098 11.7013 17.9757 13.1396 17.9757H14.9997M14.9997 12.7674V11.2793M14.9997 12.7674V17.9757M14.9997 17.9757V23.1842M14.9997 17.9757H16.8598C18.298 17.9757 19.4639 19.1417 19.4639 20.5799C19.4639 22.0182 18.298 23.1842 16.8598 23.1842H14.9997M14.9997 23.1842H13.1396C11.7013 23.1842 10.5354 22.0182 10.5354 20.5799M14.9997 23.1842V24.6722" stroke="url(#paint0_linear_134_34)" stroke-width="2.00893" stroke-linecap="round" stroke-linejoin="round"/>
<path d="M14.9996 6.07122C8.83568 6.07122 3.83887 13.5554 3.83887 20.9522C3.83887 25.0614 6.61487 28.3927 10.0393 28.3927H19.9599C23.3843 28.3927 26.1602 25.0614 26.1602 20.9522C26.1602 13.5554 21.1634 6.07122 14.9996 6.07122ZM14.9996 6.07122C17.4923 6.07122 18.9411 5.02735 19.346 2.9396C19.4385 2.46251 19.4848 2.22397 19.3505 1.98557C19.3121 1.91756 19.244 1.83488 19.1844 1.78429C18.9759 1.60693 18.6922 1.60693 18.1245 1.60693H11.8746C11.307 1.60693 11.0232 1.60693 10.8147 1.78429C10.7552 1.83488 10.6871 1.91756 10.6487 1.98557C10.5143 2.22397 10.5606 2.46251 10.6531 2.9396C11.0581 5.02735 12.5069 6.07122 14.9996 6.07122Z" stroke="url(#paint1_linear_134_34)" stroke-width="2.00893" stroke-linecap="round" stroke-linejoin="round"/>
</g>
</g>
<defs>
<linearGradient id="paint0_linear_134_34" x1="14.96" y1="11.2793" x2="16.6483" y2="24.4662" gradientUnits="userSpaceOnUse">
<stop stop-color="#1C2F41"/>
<stop offset="1" stop-color="#060F16"/>
</linearGradient>
<linearGradient id="paint1_linear_134_34" x1="14.9003" y1="1.60693" x2="17.6174" y2="28.1346" gradientUnits="userSpaceOnUse">
<stop stop-color="#1C2F41"/>
<stop offset="1" stop-color="#060F16"/>
</linearGradient>
<clipPath id="clip0_134_34">
<rect width="30" height="30" fill="white"/>
</clipPath>
<clipPath id="clip1_134_34">
<rect width="25.7143" height="30" fill="white" transform="translate(2.14282)"/>
</clipPath>
</defs>
</svg>
