<svg width="36" height="36" viewBox="0 0 36 36" fill="none" xmlns="http://www.w3.org/2000/svg">
<g clip-path="url(#clip0_133_1522)">
<g clip-path="url(#clip1_133_1522)">
<path fill-rule="evenodd" clip-rule="evenodd" d="M17.9998 15.0835H6.69775V20.9168C6.69775 25.0029 6.69775 27.0461 7.53265 28.5887C8.17312 29.7723 9.14443 30.7435 10.3279 31.384C11.8707 32.2189 13.9137 32.2189 17.9998 32.2189C22.0859 32.2189 24.1291 32.2189 25.6717 31.384C26.8553 30.7435 27.8265 29.7723 28.467 28.5887C29.3019 27.0461 29.3019 25.0029 29.3019 20.9168V15.0835H17.9998ZM19.0936 18.0002C19.0936 17.3961 18.6039 16.9064 17.9998 16.9064C17.3958 16.9064 16.9061 17.3961 16.9061 18.0002V28.2085C16.9061 28.8127 17.3958 29.3022 17.9998 29.3022C18.6039 29.3022 19.0936 28.8127 19.0936 28.2085V18.0002Z" fill="#007DFC"/>
<path d="M13.625 4.875L16.9063 9.25M16.9063 9.25H7.79167C6.18084 9.25 4.875 10.5558 4.875 12.1667C4.875 13.7775 6.18084 15.0833 7.79167 15.0833H28.2083C29.8192 15.0833 31.125 13.7775 31.125 12.1667C31.125 10.5558 29.8192 9.25 28.2083 9.25H19.0938M16.9063 9.25H19.0938M19.0938 9.25L22.375 4.875" stroke="#007DFC" stroke-width="2.1875" stroke-linecap="round" stroke-linejoin="round"/>
</g>
</g>
<defs>
<clipPath id="clip0_133_1522">
<rect width="36" height="36" fill="white"/>
</clipPath>
<clipPath id="clip1_133_1522">
<rect width="36" height="36" fill="white"/>
</clipPath>
</defs>
</svg>
