<svg width="36" height="36" viewBox="0 0 36 36" fill="none" xmlns="http://www.w3.org/2000/svg">
<g clip-path="url(#clip0_133_1659)">
<g clip-path="url(#clip1_133_1659)">
<path fill-rule="evenodd" clip-rule="evenodd" d="M31.6828 17.7173L30.319 26.3558C29.9013 29.0022 29.6923 30.3253 28.8997 31.2249C28.6421 31.5172 28.3446 31.7715 28.0157 31.9803C27.0036 32.623 25.6641 32.623 22.9848 32.623H13.0164C10.3373 32.623 8.99766 32.623 7.98557 31.9803C7.65669 31.7715 7.35905 31.5172 7.10151 31.2249C6.30896 30.3253 6.10005 29.0022 5.68226 26.3558L4.31864 17.7187C3.72468 13.9566 3.42771 12.0756 3.78272 11.3374C4.35977 10.1377 5.74356 9.5599 7.00243 9.99308C7.7769 10.2596 8.90575 11.7933 11.1634 14.8607C11.3281 15.0843 11.4104 15.1961 11.4955 15.2366C11.6332 15.3019 11.7968 15.2776 11.9094 15.1748C11.979 15.1111 12.025 14.9802 12.1171 14.7182L13.5428 10.6603C15.1754 6.0137 15.9918 3.69037 17.3599 3.34601C17.7805 3.24014 18.2207 3.24014 18.6414 3.346C20.0095 3.69036 20.8258 6.01367 22.4586 10.6602L23.8831 14.7146C23.9752 14.9767 24.0213 15.1077 24.0909 15.1713C24.2033 15.2741 24.3669 15.2985 24.5044 15.2333C24.5898 15.1928 24.6721 15.081 24.8368 14.8573C27.0961 11.7901 28.226 10.2565 29.0013 9.99043C30.2591 9.55878 31.6412 10.1361 32.2184 11.3344C32.5739 12.0729 32.2768 13.9544 31.6828 17.7173ZM18.0001 19.1251C15.7219 19.1251 13.8751 20.9719 13.8751 23.2502C13.8751 25.5284 15.7219 27.3752 18.0001 27.3752C20.2783 27.3752 22.1251 25.5284 22.1251 23.2502C22.1251 20.9719 20.2783 19.1251 18.0001 19.1251Z" fill="#007DFC"/>
</g>
</g>
<defs>
<clipPath id="clip0_133_1659">
<rect width="36" height="36" fill="white"/>
</clipPath>
<clipPath id="clip1_133_1659">
<rect width="36" height="36" fill="white"/>
</clipPath>
</defs>
</svg>
