<svg width="30" height="30" viewBox="0 0 30 30" fill="none" xmlns="http://www.w3.org/2000/svg">
<g clip-path="url(#clip0_134_70)">
<g clip-path="url(#clip1_134_70)">
<g clip-path="url(#clip2_134_70)">
<path d="M1.76465 14.9999C1.76465 14.5029 1.79205 14.0121 1.84543 13.5293M1.76465 14.9999V19.4117C1.76465 21.0361 3.08145 22.3529 4.70582 22.3529M1.76465 14.9999L1.83817 13.5293H1.84543M1.84543 13.5293C2.57696 6.91178 8.18737 1.76465 14.9999 1.76465C21.8126 1.76465 27.4229 6.91178 28.1545 13.5293M1.84543 13.5293H4.70582C7.14237 13.5293 9.11756 15.5045 9.11756 17.9411C9.11756 20.3777 7.14237 22.3529 4.70582 22.3529M4.70582 22.3529C4.70582 23.0362 4.70582 23.3779 4.76234 23.662C4.99441 24.8287 5.90647 25.7408 7.07321 25.9729C7.35733 26.0294 7.69897 26.0294 8.3823 26.0294H12.0588M28.1545 13.5293C28.2079 14.0121 28.2352 14.5029 28.2352 14.9999M28.1545 13.5293H25.2941C22.8575 13.5293 20.8823 15.5045 20.8823 17.9411C20.8823 20.3777 22.8575 22.3529 25.2941 22.3529C26.9185 22.3529 28.2352 21.0361 28.2352 19.4117V14.9999M28.1545 13.5293H28.1617L28.2352 14.9999M12.0588 26.0294C12.0588 27.2476 13.0464 28.2352 14.2647 28.2352H16.4706C17.6887 28.2352 18.6764 27.2476 18.6764 26.0294C18.6764 24.8111 17.6887 23.8235 16.4706 23.8235H14.2647C13.0464 23.8235 12.0588 24.8111 12.0588 26.0294Z" stroke="url(#paint0_linear_134_70)" stroke-width="2.20588" stroke-linejoin="round"/>
</g>
</g>
</g>
<defs>
<linearGradient id="paint0_linear_134_70" x1="14.8822" y1="1.76465" x2="17.1269" y2="28.0637" gradientUnits="userSpaceOnUse">
<stop stop-color="#1C2F41"/>
<stop offset="1" stop-color="#060F16"/>
</linearGradient>
<clipPath id="clip0_134_70">
<rect width="30" height="30" fill="white"/>
</clipPath>
<clipPath id="clip1_134_70">
<rect width="30" height="30" fill="white"/>
</clipPath>
<clipPath id="clip2_134_70">
<rect width="30" height="30" fill="white"/>
</clipPath>
</defs>
</svg>
