<svg width="226" height="41" viewBox="0 0 226 41" fill="none" xmlns="http://www.w3.org/2000/svg">
<g clip-path="url(#clip0_164_555)">
<path opacity="0.9" d="M20.3787 5.10938L28.021 9.5794V18.5194L20.3787 22.9895L12.7363 18.5194V9.5794L20.3787 5.10938Z" fill="url(#paint0_linear_164_555)"/>
<path opacity="0.7" d="M20.3791 10.2168L25.474 13.1542V19.0291L20.3791 21.9666L15.2842 19.0291V13.1542L20.3791 10.2168Z" fill="url(#paint1_linear_164_555)"/>
<path d="M20.38 14.0479L22.9274 15.5804V18.6456L20.38 20.4336L17.8325 18.901V15.8359L20.38 14.0479Z" fill="url(#paint2_linear_164_555)"/>
<path d="M10.189 25.5436L14.0101 22.9893L17.8313 25.5436L14.0101 28.0979L10.189 25.5436Z" fill="url(#paint3_linear_164_555)"/>
<path d="M22.9277 25.5436L26.7489 22.9893L30.5701 25.5436L26.7489 28.0979L22.9277 25.5436Z" fill="url(#paint4_linear_164_555)"/>
<path opacity="0.6" d="M7.64258 30.6523H12.7375M28.0222 30.6523H33.1171M7.64258 33.2066H11.4637M29.2959 33.2066H33.1171" stroke="black" stroke-width="1.91315" stroke-linecap="round"/>
<path d="M33.1163 12.7717C34.5232 12.7717 35.6637 11.6281 35.6637 10.2174C35.6637 8.80668 34.5232 7.66309 33.1163 7.66309C31.7094 7.66309 30.5688 8.80668 30.5688 10.2174C30.5688 11.6281 31.7094 12.7717 33.1163 12.7717Z" fill="url(#paint5_linear_164_555)"/>
<path opacity="0.9" d="M33.116 11.4938C33.8195 11.4938 34.3897 10.922 34.3897 10.2166C34.3897 9.51125 33.8195 8.93945 33.116 8.93945C32.4126 8.93945 31.8423 9.51125 31.8423 10.2166C31.8423 10.922 32.4126 11.4938 33.116 11.4938Z" fill="black"/>
</g>
<path d="M42.5529 31.4346V9.86676H47.7692L53.8973 25.3663H53.9869L60.115 9.86676H65.3313V31.4346H61.3107V16.8468H59.2182L63.7321 10.4646L55.362 31.4346H52.5222L44.1521 10.4646L48.666 16.8468H46.5735V31.4346H42.5529ZM72.9839 31.6887C71.9178 31.6887 70.9811 31.4844 70.174 31.0759C69.3669 30.6574 68.7342 30.0844 68.2758 29.357C67.8274 28.6196 67.6032 27.7826 67.6032 26.846V26.8161C67.6032 25.8396 67.8473 25.0076 68.3356 24.32C68.8238 23.6225 69.5313 23.0745 70.458 22.6759C71.3847 22.2773 72.5106 22.0332 73.8359 21.9435L80.0835 21.5549V24.2752L74.4935 24.6339C73.6565 24.6837 73.0188 24.883 72.5804 25.2318C72.142 25.5706 71.9227 26.0239 71.9227 26.5919V26.6218C71.9227 27.2097 72.1469 27.673 72.5953 28.0118C73.0437 28.3406 73.6466 28.5051 74.4039 28.5051C75.0515 28.5051 75.6295 28.3805 76.1377 28.1314C76.6558 27.8723 77.0594 27.5236 77.3483 27.0851C77.6473 26.6367 77.7967 26.1335 77.7967 25.5755V20.7179C77.7967 20.0105 77.5725 19.4525 77.1241 19.0439C76.6757 18.6254 76.0231 18.4162 75.1661 18.4162C74.3491 18.4162 73.7014 18.5856 73.2231 18.9243C72.7448 19.2631 72.4509 19.6916 72.3412 20.2097L72.3114 20.3443H68.3206L68.3356 20.1649C68.4153 19.1784 68.7391 18.3016 69.3071 17.5343C69.885 16.7671 70.6822 16.1692 71.6985 15.7407C72.7249 15.3023 73.9405 15.0831 75.3455 15.0831C76.7305 15.0831 77.9312 15.3073 78.9476 15.7557C79.964 16.1941 80.7512 16.8169 81.3092 17.624C81.8771 18.4311 82.1611 19.3727 82.1611 20.4489V31.4346H77.7967V29.0431H77.707C77.4081 29.5912 77.0195 30.0645 76.5412 30.463C76.0729 30.8517 75.5398 31.1556 74.9419 31.3748C74.3441 31.584 73.6914 31.6887 72.9839 31.6887ZM83.8949 31.4346L88.9169 23.4531L83.9248 15.4119H88.8422L91.7269 20.8225H91.8166L94.6564 15.4119H99.4094L94.4023 23.3336L99.3645 31.4346H94.6265L91.5774 25.8745H91.4877L88.4835 31.4346H83.8949ZM101.532 31.4346V9.86676H106.748L112.876 25.3663H112.966L119.094 9.86676H124.31V31.4346H120.29V16.8468H118.197L122.711 10.4646L114.341 31.4346H111.501L103.131 10.4646L107.645 16.8468H105.552V31.4346H101.532ZM130.035 36.7107C129.606 36.7107 129.193 36.6908 128.794 36.6509C128.396 36.611 128.067 36.5662 127.808 36.5164V33.273C127.967 33.3029 128.171 33.3328 128.421 33.3627C128.67 33.4025 128.954 33.4225 129.272 33.4225C129.93 33.4225 130.448 33.3128 130.827 33.0936C131.206 32.8744 131.49 32.4958 131.679 31.9577L131.873 31.4346L126.208 15.4119H131.006L134.623 28.804L134.04 27.9371H134.862L134.28 28.804L137.897 15.4119H142.5L137 31.7186C136.581 32.9741 136.053 33.9655 135.416 34.6929C134.788 35.4203 134.03 35.9385 133.144 36.2473C132.257 36.5562 131.221 36.7107 130.035 36.7107ZM153.994 31.8082C151.892 31.8082 150.068 31.3598 148.524 30.463C146.989 29.5663 145.803 28.2858 144.966 26.6218C144.139 24.9478 143.726 22.9549 143.726 20.6432V20.6282C143.726 18.3066 144.144 16.3187 144.981 14.6646C145.818 13.0005 147.004 11.7251 148.539 10.8383C150.073 9.94149 151.892 9.4931 153.994 9.4931C155.738 9.4931 157.292 9.83188 158.657 10.5095C160.022 11.187 161.119 12.1187 161.946 13.3045C162.773 14.4802 163.256 15.8354 163.395 17.3699L163.41 17.5044H159.016L158.956 17.2503C158.787 16.4532 158.483 15.7607 158.045 15.1728C157.606 14.5849 157.043 14.1315 156.356 13.8126C155.678 13.4838 154.891 13.3194 153.994 13.3194C152.838 13.3194 151.837 13.6134 150.99 14.2012C150.143 14.7891 149.485 15.6311 149.017 16.7272C148.558 17.8133 148.329 19.1087 148.329 20.6133V20.6282C148.329 22.1428 148.558 23.4531 149.017 24.5592C149.485 25.6553 150.143 26.5022 150.99 27.1001C151.847 27.688 152.848 27.9819 153.994 27.9819C154.861 27.9819 155.633 27.8225 156.311 27.5036C156.998 27.1848 157.571 26.7264 158.03 26.1286C158.488 25.5207 158.812 24.7884 159.001 23.9314L159.031 23.782H163.425L163.41 23.9464C163.271 25.4709 162.783 26.8261 161.946 28.0118C161.119 29.1976 160.022 30.1292 158.657 30.8068C157.292 31.4744 155.738 31.8082 153.994 31.8082ZM165.951 31.4346V9.86676H170.316V31.4346H165.951ZM180.614 31.7634C178.99 31.7634 177.585 31.4296 176.399 30.762C175.213 30.0944 174.296 29.1378 173.649 27.8922C173.001 26.6467 172.677 25.157 172.677 23.4232V23.3933C172.677 21.6695 173.006 20.1898 173.664 18.9542C174.321 17.7087 175.243 16.7521 176.429 16.0845C177.614 15.4169 179.005 15.0831 180.599 15.0831C182.203 15.0831 183.598 15.4169 184.784 16.0845C185.98 16.7422 186.906 17.6937 187.564 18.9393C188.222 20.1749 188.55 21.6596 188.55 23.3933V23.4232C188.55 25.167 188.222 26.6617 187.564 27.9072C186.916 29.1527 185.999 30.1093 184.814 30.7769C183.628 31.4346 182.228 31.7634 180.614 31.7634ZM180.629 28.3406C181.336 28.3406 181.949 28.1513 182.467 27.7727C182.995 27.3841 183.399 26.8261 183.678 26.0987C183.967 25.3613 184.111 24.4695 184.111 23.4232V23.3933C184.111 22.3571 183.967 21.4752 183.678 20.7478C183.389 20.0204 182.98 19.4674 182.452 19.0888C181.924 18.7001 181.306 18.5058 180.599 18.5058C179.901 18.5058 179.288 18.7001 178.76 19.0888C178.242 19.4674 177.839 20.0204 177.55 20.7478C177.261 21.4752 177.116 22.3571 177.116 23.3933V23.4232C177.116 24.4695 177.256 25.3613 177.535 26.0987C177.824 26.8261 178.232 27.3841 178.76 27.7727C179.288 28.1513 179.911 28.3406 180.629 28.3406ZM196.263 31.7634C195.087 31.7634 194.086 31.5242 193.259 31.046C192.441 30.5577 191.814 29.8652 191.375 28.9684C190.947 28.0716 190.733 27.0004 190.733 25.7549V15.4119H195.097V24.8432C195.097 25.8894 195.341 26.7015 195.829 27.2794C196.328 27.8574 197.065 28.1463 198.041 28.1463C198.53 28.1463 198.968 28.0616 199.357 27.8922C199.755 27.7229 200.094 27.4837 200.373 27.1748C200.652 26.856 200.866 26.4823 201.016 26.0538C201.165 25.6154 201.24 25.1371 201.24 24.619V15.4119H205.604V31.4346H201.24V28.789H201.15C200.871 29.3969 200.503 29.925 200.044 30.3734C199.596 30.8218 199.053 31.1655 198.415 31.4047C197.787 31.6438 197.07 31.7634 196.263 31.7634ZM214.378 31.7634C213.033 31.7634 211.872 31.4296 210.895 30.762C209.919 30.0944 209.167 29.1378 208.638 27.8922C208.12 26.6467 207.861 25.157 207.861 23.4232V23.4083C207.861 21.6645 208.125 20.1749 208.653 18.9393C209.182 17.6937 209.929 16.7422 210.895 16.0845C211.872 15.4169 213.033 15.0831 214.378 15.0831C215.135 15.0831 215.833 15.2076 216.47 15.4568C217.108 15.7059 217.666 16.0646 218.144 16.5329C218.633 16.9913 219.021 17.5443 219.31 18.192H219.4V9.86676H223.764V31.4346H219.4V28.6994H219.31C219.031 29.3371 218.653 29.8851 218.174 30.3435C217.696 30.7919 217.138 31.1406 216.5 31.3897C215.863 31.6388 215.155 31.7634 214.378 31.7634ZM215.843 28.1463C216.55 28.1463 217.173 27.957 217.711 27.5784C218.249 27.1898 218.668 26.6417 218.966 25.9343C219.265 25.2268 219.415 24.3898 219.415 23.4232V23.4083C219.415 22.4418 219.26 21.6097 218.952 20.9122C218.653 20.2048 218.234 19.6617 217.696 19.2831C217.168 18.8944 216.55 18.7001 215.843 18.7001C215.115 18.7001 214.488 18.8895 213.959 19.2681C213.431 19.6468 213.023 20.1898 212.734 20.8973C212.445 21.5948 212.3 22.4318 212.3 23.4083V23.4232C212.3 24.3898 212.44 25.2268 212.719 25.9343C213.008 26.6417 213.416 27.1898 213.944 27.5784C214.483 27.957 215.115 28.1463 215.843 28.1463Z" fill="black"/>
<defs>
<linearGradient id="paint0_linear_164_555" x1="12.7363" y1="5.10938" x2="1778.98" y2="1514.97" gradientUnits="userSpaceOnUse">
<stop stop-color="#3B82F6"/>
<stop offset="0.5" stop-color="#06B6D4"/>
<stop offset="1" stop-color="#8B5CF6"/>
</linearGradient>
<linearGradient id="paint1_linear_164_555" x1="15.2842" y1="10.2168" x2="1178.44" y2="1018.94" gradientUnits="userSpaceOnUse">
<stop stop-color="#3B82F6"/>
<stop offset="0.5" stop-color="#06B6D4"/>
<stop offset="1" stop-color="#8B5CF6"/>
</linearGradient>
<linearGradient id="paint2_linear_164_555" x1="17.8325" y1="14.0479" x2="640.463" y2="510.816" gradientUnits="userSpaceOnUse">
<stop stop-color="#3B82F6"/>
<stop offset="0.5" stop-color="#06B6D4"/>
<stop offset="1" stop-color="#8B5CF6"/>
</linearGradient>
<linearGradient id="paint3_linear_164_555" x1="10.189" y1="22.9893" x2="482.238" y2="729.163" gradientUnits="userSpaceOnUse">
<stop stop-color="#F59E0B"/>
<stop offset="1" stop-color="#EF4444"/>
</linearGradient>
<linearGradient id="paint4_linear_164_555" x1="22.9277" y1="22.9893" x2="494.976" y2="729.163" gradientUnits="userSpaceOnUse">
<stop stop-color="#F59E0B"/>
<stop offset="1" stop-color="#EF4444"/>
</linearGradient>
<linearGradient id="paint5_linear_164_555" x1="30.5688" y1="7.66309" x2="541.427" y2="517.151" gradientUnits="userSpaceOnUse">
<stop stop-color="#F59E0B"/>
<stop offset="1" stop-color="#EF4444"/>
</linearGradient>
<clipPath id="clip0_164_555">
<rect width="40.7592" height="40.8688" fill="white"/>
</clipPath>
</defs>
</svg>
