<svg width="36" height="36" viewBox="0 0 36 36" fill="none" xmlns="http://www.w3.org/2000/svg">
<g clip-path="url(#clip0_133_1590)">
<g clip-path="url(#clip1_133_1590)">
<path d="M7.55956 22.6609C7.31849 22.8313 7.10455 23.0041 6.93597 23.1727C5.5747 24.5339 5.10361 26.3183 4.94785 27.6522C4.8685 28.3319 4.86649 28.9318 4.88417 29.3628C4.89303 29.5795 5.05126 30.8074 5.06345 30.9331C5.18909 30.9452 6.41704 31.1035 6.63355 31.1123C7.06479 31.13 7.66452 31.1281 8.34418 31.0486C9.6781 30.8928 11.4626 30.4217 12.8239 29.0604C12.9925 28.8919 13.1652 28.6779 13.3357 28.4369C13.4479 28.2782 13.5041 28.1989 13.6659 27.8037C14.0315 26.9111 13.8869 25.2125 13.3756 24.3945C13.1493 24.0326 12.9517 23.8349 12.5566 23.4398C12.1615 23.0447 11.964 22.8471 11.6019 22.6208C10.7839 22.1096 9.08544 21.965 8.19277 22.3306C7.79768 22.4924 7.71831 22.5485 7.55956 22.6609Z" fill="#007DFC"/>
<path fill-rule="evenodd" clip-rule="evenodd" d="M25.2747 5.25077C26.628 5.00207 27.8111 4.91157 28.659 4.88319C29.2165 4.86453 29.4954 4.85521 29.7845 4.93994C30.337 5.10188 30.8944 5.65937 31.0563 6.21182C31.1411 6.50089 31.1317 6.7797 31.113 7.33733C31.0846 8.18524 30.9942 9.36828 30.7455 10.7215C30.269 13.3143 29.1961 16.6155 26.7836 19.3563L26.4674 25.4302C26.3273 28.1224 24.1032 30.2337 21.4071 30.2337C18.6927 30.2337 16.4606 28.0947 16.3448 25.3827L16.285 23.9838L12.0124 19.7112L10.6135 19.6515C7.90159 19.5358 5.76257 17.3035 5.76257 14.5891C5.76257 11.893 7.87378 9.66906 10.5663 9.52892L16.64 9.21281C19.3808 6.80025 22.682 5.72727 25.2747 5.25077ZM22.4991 16.5C22.4991 18.1569 21.156 19.5 19.4991 19.5C17.8422 19.5 16.4992 18.1569 16.4992 16.5C16.4992 14.8432 17.8422 13.5 19.4991 13.5C21.156 13.5 22.4991 14.8432 22.4991 16.5Z" fill="#007DFC"/>
</g>
</g>
<defs>
<clipPath id="clip0_133_1590">
<rect width="36" height="36" fill="white"/>
</clipPath>
<clipPath id="clip1_133_1590">
<rect width="36" height="36" fill="white"/>
</clipPath>
</defs>
</svg>
